<svg xmlns="http://www.w3.org/2000/svg"><symbol id="mecha-stilts" viewBox="0 0 256 256"><path d="M129.9.8l110.5 63.8v127.6L129.9 256 19.4 192.2V64.6L129.9.8z"/><path fill="#fff" d="M69.2 175.9a2 2 0 0 1-2.1-2.1v-25.4H39.4a2.3 2.3 0 0 1-2.1-2.1 2.2 2.2 0 0 1 2.1-2.1h15.7v-13.7a2.1 2.1 0 0 1 2.1-2.1h8.2a66.6 66.6 0 0 1 64.2-51c.2-.2.4-.2.9 0 31 .2 56.8 22.1 63.8 51h8.1a2 2 0 0 1 2.1 2.1v13.7h15.8a2.3 2.3 0 0 1 2.1 2.1 2.3 2.3 0 0 1-2.1 2.1h-27.7v25.4a2.1 2.1 0 0 1-2.1 2.1zm-9.9-43.3v11.6h141v-11.6zm66.3-50.8c-26.8 1.7-49.3 21.2-55.8 46.6h22.5zm-54.3 66.6v23.3h56.4v-23.3zM127.7 86l-30.2 42.4h30.2zm4.2-4.4v46.8h58c-6.5-26-30.1-45.7-58-46.8zm0 66.8v23.3h9.5v-23.3zm13.7 0v23.3h42.8v-23.3z"/></symbol><symbol id="space-bubbles" viewBox="0 0 256 256"><path d="M127.5.5L238 64.3v127.6l-110.5 63.8L17 191.9V64.3L127.5.5z"/><path fill="#fff" d="M65.1 179.8l-4.9-6.9a2.3 2.3 0 0 1 .2-2.5l17.4-20.5h-8.6a2.1 2.1 0 0 1-2.1-2.1v-15.1a2 2 0 0 1 2.1-2.1h12.2a57.1 57.1 0 0 1-2.3-15.9 49.7 49.7 0 0 1 49.7-49.5c27 0 49.4 22.4 49.4 49.5a50.6 50.6 0 0 1-2.3 15.9h12.2a2 2 0 0 1 2.1 2.1v15.1a2.1 2.1 0 0 1-2.1 2.1h-10.7l17.2 20.5a2.3 2.3 0 0 1 0 2.5l-4.9 6.9a2.1 2.1 0 0 1-2.7.7l-10-5.3H77.8l-10 5.3a2.2 2.2 0 0 1-2.7-.7zm31.8-29.9H83.1l-18.5 21.8 3 4.2 35.4-18.7zm-25.6-15.1v10.9H186v-10.9zm14.5-4.2h85.7a49.9 49.9 0 0 0 2.5-15.9 45.4 45.4 0 0 0-90.7 0c0 5.4.4 11.1 2.5 15.9zm20.1 30L86 171h28.5zm-3.5-10.7L120 171h15l17.6-21.1zm46.7 10.7l-8.6 10.4H169zm22.8-10.7h-13.8l-6.3 7.3 35.6 18.7 3-4z"/></symbol><symbol id="super-domes" viewBox="0 0 256 256"><path d="M126.7.6L237 64.3v127.5l-110.3 63.7-110.4-63.7V64.3L126.7.6z"/><path fill="#fff" d="M62.6 175.1a2.2 2.2 0 0 1-2.1-2.1 2.3 2.3 0 0 1 2.1-2.1h10.5v-13.1H62.6a2 2 0 0 1-2.1-2.1v-41.3a2 2 0 0 1 2.1-2.1h13.8c1.1-29.7 23.2-46 50.3-46s49.1 16.3 50.2 46h13.8a2 2 0 0 1 2.1 2.1v41.3a2 2 0 0 1-2.1 2.1h-10.5v13.1h10.5a2.3 2.3 0 0 1 2.1 2.1 2.2 2.2 0 0 1-2.1 2.1zm2.1-58.6v37.1h123.9v-37.1zm12.5 41.3v13.1h13.4v-13.1zm3.4-45.5h92.1c-1-27-21.6-41.8-46-41.8s-45.1 14.8-46.1 41.8zm14.2 45.5v13.1h21v-13.1zm25.2 0v13.1h13.3v-13.1zm56.7-14.3h-51.1a2.3 2.3 0 0 1-2.1-2.1 2.3 2.3 0 0 1 2.1-2.1h51.1a2.3 2.3 0 0 1 2.1 2.1 2.3 2.3 0 0 1-2.1 2.1zm-39.2 14.3v13.1h21v-13.1zm25.2 0v13.1h13.4v-13.1z"/></symbol></svg>