<svg xmlns="http://www.w3.org/2000/svg"><symbol id="space-bubbles" viewBox="0 0 256 256"><path d="M129 1l110 63.5v127L129 255 19 191.5v-127L129 1z"/><path fill="#fff" d="M66.8 179.5l-4.8-6.9a2.3 2.3 0 0 1 .2-2.5l17.4-20.4H71a2 2 0 0 1-2.1-2.1v-15a2 2 0 0 1 2.1-2.1h12.1a56.6 56.6 0 0 1-2.3-15.9 49.5 49.5 0 0 1 49.4-49.2c27 0 49.3 22.3 49.3 49.2a50.2 50.2 0 0 1-2.3 15.9h12.1a2 2 0 0 1 2.1 2.1v15a2 2 0 0 1-2.1 2.1h-10.7l17.2 20.4a2.3 2.3 0 0 1 0 2.5l-4.8 6.9a2.2 2.2 0 0 1-2.8.6l-10-5.2H79.6l-10.1 5.2a2.1 2.1 0 0 1-2.7-.6zm31.7-29.8H84.8l-18.4 21.7 2.9 4.2 35.3-18.6zm-25.4-15v10.8h114.1v-10.8zm14.4-4.2h85.3a49.5 49.5 0 0 0 2.5-15.9 45.2 45.2 0 0 0-90.3 0c0 5.5.4 11.1 2.5 15.9zm20 29.8l-19.8 10.5h28.4zm-3.5-10.6l17.5 21.1h15l17.5-21.1zm46.5 10.6l-8.6 10.5h28.4zm22.7-10.6h-13.7l-6.3 7.3 35.5 18.6 2.9-4z"/></symbol><symbol id="mecha-stilts" viewBox="0 0 256 256"><path d="M129 1l110 63.5v127L129 255 19 191.5v-127L129 1z"/><path fill="#fff" d="M65.7 174.5a2.1 2.1 0 0 1 0-4.1h10.4v-13.1H65.7a1.9 1.9 0 0 1-2-2v-40.7a1.9 1.9 0 0 1 2-2.1h13.7C80.4 83.1 102.3 67 129 67s48.6 16.1 49.6 45.5h13.6a1.9 1.9 0 0 1 2.1 2.1v40.7a1.9 1.9 0 0 1-2.1 2h-10.3v13.1h10.3a2.1 2.1 0 1 1 0 4.1zm2.1-57.9v36.6h122.4v-36.6zm12.4 40.7v13.1h13.2v-13.1zm3.3-44.8h91c-1.1-26.7-21.3-41.3-45.5-41.3s-44.4 14.6-45.5 41.3zm14.1 44.8v13.1h20.6v-13.1zm24.8 0v13.1h13.2v-13.1zm56-14H128a2.1 2.1 0 1 1 0-4.1h50.4a2.1 2.1 0 1 1 0 4.1zm-38.7 14v13.1h20.7v-13.1zm24.8 0v13.1h13.3v-13.1z"/></symbol><symbol id="super-domes" viewBox="0 0 256 256"><path d="M125.5 1l110 63.5v127l-110 63.5-110-63.5v-127L125.5 1z"/><path fill="#fff" d="M65.2 174.9a2 2 0 0 1-2.1-2.1v-25.2H35.6a2.2 2.2 0 0 1-2.1-2.1 2.3 2.3 0 0 1 2.1-2.1h15.6v-13.5a2 2 0 0 1 2.1-2.1h8.2a66 66 0 0 1 63.8-50.7c.2-.2.4-.2.8 0a65.8 65.8 0 0 1 63.4 50.7h8.2a2 2 0 0 1 2.1 2.1v13.5h15.6a2.3 2.3 0 0 1 2.1 2.1 2.3 2.3 0 0 1-2.1 2.1h-27.5v25.2a2 2 0 0 1-2.1 2.1zM55.4 132v11.4h140.2V132zm65.9-50.5c-26.7 1.6-49 21-55.5 46.3h22.4zm-54 66.1v23.2h56.1v-23.2zm56.1-62l-30 42.2h30zm4.2-4.3v46.5h57.6a62 62 0 0 0-57.6-46.5zm0 66.3v23.2h9.4v-23.2zm13.5 0v23.2h42.6v-23.2z"/></symbol></svg>