<svg xmlns="http://www.w3.org/2000/svg" width="256" height="256" viewBox="0 0 256 256"><path d="M129 1l110 63.5v127L129 255 19 191.5v-127L129 1z"/><path fill="#fff" d="M65.7 174.5a2.1 2.1 0 0 1 0-4.1h10.4v-13.1H65.7a1.9 1.9 0 0 1-2-2v-40.7a1.9 1.9 0 0 1 2-2.1h13.7C80.4 83.1 102.3 67 129 67s48.6 16.1 49.6 45.5h13.6a1.9 1.9 0 0 1 2.1 2.1v40.7a1.9 1.9 0 0 1-2.1 2h-10.3v13.1h10.3a2.1 2.1 0 1 1 0 4.1zm2.1-57.9v36.6h122.4v-36.6zm12.4 40.7v13.1h13.2v-13.1zm3.3-44.8h91c-1.1-26.7-21.3-41.3-45.5-41.3s-44.4 14.6-45.5 41.3zm14.1 44.8v13.1h20.6v-13.1zm24.8 0v13.1h13.2v-13.1zm56-14H128a2.1 2.1 0 1 1 0-4.1h50.4a2.1 2.1 0 1 1 0 4.1zm-38.7 14v13.1h20.7v-13.1zm24.8 0v13.1h13.3v-13.1z"/></svg>
