<svg xmlns="http://www.w3.org/2000/svg" width="256" height="256" viewBox="0 0 256 256"><path d="M129 1l110 63.5v127L129 255 19 191.5v-127L129 1z"/><path fill="#fff" d="M66.8 179.5l-4.8-6.9a2.3 2.3 0 0 1 .2-2.5l17.4-20.4H71a2 2 0 0 1-2.1-2.1v-15a2 2 0 0 1 2.1-2.1h12.1a56.6 56.6 0 0 1-2.3-15.9 49.5 49.5 0 0 1 49.4-49.2c27 0 49.3 22.3 49.3 49.2a50.2 50.2 0 0 1-2.3 15.9h12.1a2 2 0 0 1 2.1 2.1v15a2 2 0 0 1-2.1 2.1h-10.7l17.2 20.4a2.3 2.3 0 0 1 0 2.5l-4.8 6.9a2.2 2.2 0 0 1-2.8.6l-10-5.2H79.6l-10.1 5.2a2.1 2.1 0 0 1-2.7-.6zm31.7-29.8H84.8l-18.4 21.7 2.9 4.2 35.3-18.6zm-25.4-15v10.8h114.1v-10.8zm14.4-4.2h85.3a49.5 49.5 0 0 0 2.5-15.9 45.2 45.2 0 0 0-90.3 0c0 5.5.4 11.1 2.5 15.9zm20 29.8l-19.8 10.5h28.4zm-3.5-10.6l17.5 21.1h15l17.5-21.1zm46.5 10.6l-8.6 10.5h28.4zm22.7-10.6h-13.7l-6.3 7.3 35.5 18.6 2.9-4z"/></svg>