<svg xmlns="http://www.w3.org/2000/svg" width="256" height="256" viewBox="0 0 256 256"><path d="M125.5 1l110 63.5v127l-110 63.5-110-63.5v-127L125.5 1z"/><path fill="#fff" d="M65.2 174.9a2 2 0 0 1-2.1-2.1v-25.2H35.6a2.2 2.2 0 0 1-2.1-2.1 2.3 2.3 0 0 1 2.1-2.1h15.6v-13.5a2 2 0 0 1 2.1-2.1h8.2a66 66 0 0 1 63.8-50.7c.2-.2.4-.2.8 0a65.8 65.8 0 0 1 63.4 50.7h8.2a2 2 0 0 1 2.1 2.1v13.5h15.6a2.3 2.3 0 0 1 2.1 2.1 2.3 2.3 0 0 1-2.1 2.1h-27.5v25.2a2 2 0 0 1-2.1 2.1zM55.4 132v11.4h140.2V132zm65.9-50.5c-26.7 1.6-49 21-55.5 46.3h22.4zm-54 66.1v23.2h56.1v-23.2zm56.1-62l-30 42.2h30zm4.2-4.3v46.5h57.6a62 62 0 0 0-57.6-46.5zm0 66.3v23.2h9.4v-23.2zm13.5 0v23.2h42.6v-23.2z"/></svg>